# xmcd
#
# Track frame offsets:
#	150
#	17246
#	35753
#	54142
#	76754
#	96271
#	115132
#	131890
#	151062
#	161156
#
# Disc length: 2358 seconds
#
# Revision: 1
# Processed by: cddbd v1.5.2PL0 Copyright (c) Steve Scherf et al.
# Submitted via: audiograbber 1.83.01
#
DISCID=7709340a
DTITLE=BabyPaul&Miller - waiting for salvation
DYEAR=1998
DGENRE=Ballad
TTITLE0=Cést la vie
TTITLE1=Killer Bee
TTITLE2=Don´t fool me
TTITLE3=Live and Die
TTITLE4=Salvation
TTITLE5=Sailor in the storm
TTITLE6=Thunder
TTITLE7=Beast of pray
TTITLE8=Chill out zone
TTITLE9=Shake your body
EXTD=
EXTT0=
EXTT1=
EXTT2=
EXTT3=
EXTT4=
EXTT5=
EXTT6=
EXTT7=
EXTT8=
EXTT9=
PLAYORDER=
